Coordinates
version=1
nRows=7
nColumns=40
inDegrees=yes

Units are S.I. units (second, meters, Newtons, ...)
Angles are in degrees.

endheader
time	pelvis_tilt	pelvis_list	pelvis_rotation	pelvis_tx	pelvis_ty	pelvis_tz	hip_flexion_r	hip_adduction_r	hip_rotation_r	knee_angle_r	knee_angle_r_beta	ankle_angle_r	subtalar_angle_r	mtp_angle_r	hip_flexion_l	hip_adduction_l	hip_rotation_l	knee_angle_l	knee_angle_l_beta	ankle_angle_l	subtalar_angle_l	mtp_angle_l	lumbar_extension	lumbar_bending	lumbar_rotation	arm_flex_r	arm_add_r	arm_rot_r	elbow_flex_r	pro_sup_r	wrist_flex_r	wrist_dev_r	arm_flex_l	arm_add_l	arm_rot_l	elbow_flex_l	pro_sup_l	wrist_flex_l	wrist_dev_l
     52.43400000	     -3.43456216	     -5.57316662	     -3.86240821	      0.89302496	      0.91818465	      0.44425742	     26.65420767	     -5.55509466	     -3.47945228	     66.04195227	     66.04195227	      2.56043087	    -18.85790251	      8.71008813	     16.49658117	     -3.29459831	     -2.68167392	     32.33120702	     32.33120702	     21.21399504	    -17.49300599	      8.82537658	    -10.57761579	      7.04567636	      2.14820749	      5.46356298	    -11.01055207	    -16.77933766	     20.04623004	     47.10748555	      0.00000000	      0.00000000	     24.06772006	    -16.71414588	      6.43469309	     42.25905875	     46.11169116	      0.00000000	      0.00000000
     52.45300000	     -3.51371578	     -5.70812876	     -4.50051049	      0.89254530	      0.92005392	      0.44465862	     27.21532162	     -4.97402772	     -3.42614016	     64.27816415	     64.27816415	      3.68882121	    -18.68803822	      8.49065292	     15.56433729	     -3.53760540	     -3.32004043	     31.32352294	     31.32352294	     21.20879298	    -17.30893695	      8.88514941	    -10.50183005	      7.31251427	      1.91715877	      2.88564477	    -10.83529145	    -16.83201478	     19.41853781	     47.11909884	      0.00000000	      0.00000000	     24.94663284	    -17.12244547	      5.70760171	     43.29809780	     46.20736906	      0.00000000	      0.00000000
     52.47200000	     -3.59028198	     -5.85505285	     -5.20537538	      0.89201673	      0.92229980	      0.44555285	     27.53378365	     -4.23642691	     -3.19931168	     61.83850786	     61.83850786	      4.76085522	    -18.26995888	      7.79737120	     14.49489465	     -3.82318420	     -4.03640677	     30.07132608	     30.07132608	     21.00099021	    -17.01636400	      8.87144521	    -10.42449165	      7.56384749	      1.87993417	      0.12664605	    -10.71918645	    -16.90508737	     19.04692775	     47.12039940	      0.00000000	      0.00000000	     25.88889426	    -17.53718558	      4.62809296	     44.80113241	     46.34164948	      0.00000000	      0.00000000
     52.49100000	     -3.80515176	     -5.99476623	     -5.90324155	      0.89135705	      0.92444434	      0.44665518	     27.71009899	     -3.60005473	     -3.14578135	     58.64488712	     58.64488712	      4.73672384	    -17.80382117	      3.88601393	     13.45408234	     -4.11232843	     -4.83212355	     28.55036490	     28.55036490	     20.30510000	    -16.78583056	      7.62405215	    -10.28992330	      7.82474800	      1.41850117	     -2.92951673	    -10.58208490	    -16.81035863	     20.87316529	     47.02066792	      0.00000000	      0.00000000	     25.77477400	    -17.79064679	      0.74004597	     47.97988259	     46.74997163	      0.00000000	      0.00000000
     52.51000000	     -4.01790942	     -6.13898189	     -6.61587222	      0.89064708	      0.92668612	      0.44804826	     27.68322174	     -2.92078449	     -3.04958951	     54.96837653	     54.96837653	      4.88706773	    -16.92310968	      0.87269750	     12.34448000	     -4.38984096	     -5.63625688	     26.93231848	     26.93231848	     19.86086788	    -16.41700733	      7.11865954	    -10.09921253	      8.07787740	      1.17928359	     -5.32522585	    -10.59582890	    -16.20675116	     20.98479014	     46.96224808	      0.00000000	      0.00000000	     26.28297137	    -18.14664441	     -1.14870701	     49.93647465	     46.94189521	      0.00000000	      0.00000000
     52.52900000	     -4.22616321	     -6.22005479	     -7.34955415	      0.88987251	      0.92878438	      0.44968624	     27.53574924	     -2.32131458	     -2.94513716	     51.04230975	     51.04230975	      5.53133129	    -15.31738381	     -0.36692663	     11.16670753	     -4.57942249	     -6.48784244	     25.20822136	     25.20822136	     19.55749103	    -15.89213659	      6.99933137	     -9.93292001	      8.23849043	      1.21131014	     -7.57279823	    -10.64507368	    -16.07773234	     20.92389941	     46.94182465	      0.00000000	      0.00000000	     27.01084907	    -18.52224201	     -2.08588274	     51.77384985	     47.04791072	      0.00000000	      0.00000000
     52.54800000	     -4.44403350	     -6.30287323	     -8.04366841	      0.88902598	      0.93053908	      0.45161620	     27.18455018	     -1.75100869	     -2.95270953	     46.75489312	     46.75489312	      5.82168614	    -13.46527802	     -2.11284290	     10.00664609	     -4.78115729	     -7.38609617	     23.47249839	     23.47249839	     19.05940575	    -15.34892399	      6.28122763	     -9.78552183	      8.41083921	      0.94277057	     -9.71320707	    -10.65996199	    -15.98630182	     21.74312824	     46.88736231	      0.00000000	      0.00000000	     27.32463882	    -19.12488655	     -3.71258566	     54.32965346	     47.21291903	      0.00000000	      0.00000000
